HIERARCHY
ROOT hip
{
  OFFSET 50.4891 85.2492 125.703
  CHANNELS 6 Xposition Yposition Zposition Zrotation Xrotation Yrotation
  JOINT abdomen
  {
    OFFSET 0 20.6881 -0.73152
    CHANNELS 3 Zrotation Xrotation Yrotation
    JOINT chest
    {
      OFFSET 0 11.7043 -0.48768
      CHANNELS 3 Zrotation Xrotation Yrotation
      JOINT neck
      {
        OFFSET 0 22.1894 -2.19456
        CHANNELS 3 Zrotation Xrotation Yrotation
        JOINT head
        {
          OFFSET -0.24384 7.07133 1.2192
          CHANNELS 3 Zrotation Xrotation Yrotation
          JOINT leftEye
          {
            OFFSET 4.14528 8.04674 8.04672
            CHANNELS 3 Zrotation Xrotation Yrotation
            End Site
            {
              OFFSET 1 0 0
            }
          }
          JOINT rightEye
          {
            OFFSET -3.6576 8.04674 8.04672
            CHANNELS 3 Zrotation Xrotation Yrotation
            End Site
            {
              OFFSET 1 0 0
            }
          }
        }
      }
      JOINT rCollar
      {
        OFFSET -2.68224 19.2634 -4.8768
        CHANNELS 3 Zrotation Xrotation Yrotation
        JOINT rShldr
        {
          OFFSET -8.77824 -1.95073 1.46304
          CHANNELS 3 Zrotation Xrotation Yrotation
          JOINT rForeArm
          {
            OFFSET -28.1742 -1.7115 0.48768
            CHANNELS 3 Zrotation Xrotation Yrotation
            JOINT rHand
            {
              OFFSET -22.5879 0.773209 7.07136
              CHANNELS 3 Zrotation Xrotation Yrotation
              JOINT rThumb1
              {
                OFFSET -1.2192 -0.487915 3.41376
                CHANNELS 3 Zrotation Xrotation Yrotation
                JOINT rThumb2
                {
                  OFFSET -3.37035 -0.52449 3.41376
                  CHANNELS 3 Zrotation Xrotation Yrotation
                  End Site
                  {
                    OFFSET -1.78271 -1.18214 1.43049
                  }
                }
              }
              JOINT rIndex1
              {
                OFFSET -7.75947 0.938293 5.60832
                CHANNELS 3 Zrotation Xrotation Yrotation
                JOINT rIndex2
                {
                  OFFSET -2.54057 -0.884171 1.56538
                  CHANNELS 3 Zrotation Xrotation Yrotation
                  End Site
                  {
                    OFFSET -1.62519 -0.234802 1.16502
                  }
                }
              }
              JOINT rMid1
              {
                OFFSET -8.24714 1.18213 3.41376
                CHANNELS 3 Zrotation Xrotation Yrotation
                JOINT rMid2
                {
                  OFFSET -3.10165 -0.590103 1.0647
                  CHANNELS 3 Zrotation Xrotation Yrotation
                  End Site
                  {
                    OFFSET -2.48547 -0.328903 0.83742
                  }
                }
              }
              JOINT rRing1
              {
                OFFSET -8.82822 0.546677 1.51678
                CHANNELS 3 Zrotation Xrotation Yrotation
                JOINT rRing2
                {
                  OFFSET -2.60934 -0.819778 -0.0198488
                  CHANNELS 3 Zrotation Xrotation Yrotation
                  End Site
                  {
                    OFFSET -2.33842 -0.294052 0.168128
                  }
                }
              }
              JOINT rPinky1
              {
                OFFSET -8.27202 -0.0477905 -0.4584
                CHANNELS 3 Zrotation Xrotation Yrotation
                JOINT rPinky2
                {
                  OFFSET -1.82734 -0.647385 -0.700984
                  CHANNELS 3 Zrotation Xrotation Yrotation
                  End Site
                  {
                    OFFSET -1.69225 -0.51767 -0.607171
                  }
                }
              }
            }
          }
        }
      }
      JOINT lCollar
      {
        OFFSET 2.68224 19.2634 -4.8768
        CHANNELS 3 Zrotation Xrotation Yrotation
        JOINT lShldr
        {
          OFFSET 8.77824 -1.95073 1.46304
          CHANNELS 3 Zrotation Xrotation Yrotation
          JOINT lForeArm
          {
            OFFSET 28.1742 -1.7115 0.48768
            CHANNELS 3 Zrotation Xrotation Yrotation
            JOINT lHand
            {
              OFFSET 22.5879 0.773209 7.07136
              CHANNELS 3 Zrotation Xrotation Yrotation
              JOINT lThumb1
              {
                OFFSET 1.2192 -0.487915 3.41376
                CHANNELS 3 Zrotation Xrotation Yrotation
                JOINT lThumb2
                {
                  OFFSET 3.37035 -0.52449 3.41376
                  CHANNELS 3 Zrotation Xrotation Yrotation
                  End Site
                  {
                    OFFSET 1.78271 -1.18214 1.43049
                  }
                }
              }
              JOINT lIndex1
              {
                OFFSET 7.75947 0.938293 5.60832
                CHANNELS 3 Zrotation Xrotation Yrotation
                JOINT lIndex2
                {
                  OFFSET 2.54057 -0.884171 1.56538
                  CHANNELS 3 Zrotation Xrotation Yrotation
                  End Site
                  {
                    OFFSET 1.62519 -0.234802 1.16502
                  }
                }
              }
              JOINT lMid1
              {
                OFFSET 8.24714 1.18213 3.41376
                CHANNELS 3 Zrotation Xrotation Yrotation
                JOINT lMid2
                {
                  OFFSET 3.10165 -0.590103 1.0647
                  CHANNELS 3 Zrotation Xrotation Yrotation
                  End Site
                  {
                    OFFSET 2.48547 -0.328903 0.83742
                  }
                }
              }
              JOINT lRing1
              {
                OFFSET 8.82822 0.546677 1.51678
                CHANNELS 3 Zrotation Xrotation Yrotation
                JOINT lRing2
                {
                  OFFSET 2.60934 -0.819778 -0.0198488
                  CHANNELS 3 Zrotation Xrotation Yrotation
                  End Site
                  {
                    OFFSET 2.33842 -0.294052 0.168128
                  }
                }
              }
              JOINT lPinky1
              {
                OFFSET 8.27202 -0.0477905 -0.4584
                CHANNELS 3 Zrotation Xrotation Yrotation
                JOINT lPinky2
                {
                  OFFSET 1.82734 -0.647385 -0.700984
                  CHANNELS 3 Zrotation Xrotation Yrotation
                  End Site
                  {
                    OFFSET 1.69225 -0.51767 -0.607171
                  }
                }
              }
            }
          }
        }
      }
    }
  }
  JOINT rButtock
  {
    OFFSET -8.77824 4.35084 1.2192
    CHANNELS 3 Zrotation Xrotation Yrotation
    JOINT rThigh
    {
      OFFSET 0 -1.70687 -2.19456
      CHANNELS 3 Zrotation Xrotation Yrotation
      JOINT rShin
      {
        OFFSET 0 -36.8199 0.73152
        CHANNELS 3 Zrotation Xrotation Yrotation
        JOINT rFoot
        {
          OFFSET 0.73152 -45.1104 -5.12064
          CHANNELS 3 Zrotation Xrotation Yrotation
          End Site
          {
            OFFSET -1.1221 -3.69964 12.103
          }
        }
      }
    }
  }
  JOINT lButtock
  {
    OFFSET 8.77824 4.35084 1.2192
    CHANNELS 3 Zrotation Xrotation Yrotation
    JOINT lThigh
    {
      OFFSET 0 -1.70687 -2.19456
      CHANNELS 3 Zrotation Xrotation Yrotation
      JOINT lShin
      {
        OFFSET 0 -36.8199 0.73152
        CHANNELS 3 Zrotation Xrotation Yrotation
        JOINT lFoot
        {
          OFFSET -0.73152 -45.1104 -5.12064
          CHANNELS 3 Zrotation Xrotation Yrotation
          End Site
          {
            OFFSET 1.1221 -3.69964 12.103
          }
        }
      }
    }
  }
}
MOTION
Frames:	9
Frame Time:	0.00833333
51.3869 85.5269 144.523 -1.77868 0.00595658 0.0336573 2.34099 -0.00222392 0.0637209 0.646592 0.00595027 0.111937 2.39674e-014 -7.95139e-016 1.73937e-016 7.26496e-014 3.18055e-015 4.69008e-016 -0 0 0 -0 0 0 1.18758e-014 -1.10263e-016 1.98785e-016 2.54534e-013 -2.46617e-015 2.98177e-015 4.36476e-012 -1.39169e-012 -1.59028e-014 5.00058e-011 8.71795e-013 3.81667e-013 1.17948e-010 -1.12603e-012 8.0468e-013 2.03693e-010 -1.9465e-012 1.37479e-012 1.17951e-010 -1.12631e-012 7.82416e-013 7.73091 5.47488 0.417314 1.17948e-010 -1.12621e-012 8.015e-013 2.90554 0.965183 0.102902 1.17951e-010 -1.12631e-012 7.97524e-013 10.2786 0.731801 0.0259123 1.1794e-010 -1.12512e-012 8.11041e-013 2.22167 -0.733487 -0.20892 1.17804e-014 -1.12981e-016 -9.93923e-017 2.50927e-013 -2.49102e-015 1.39149e-015 4.37113e-012 1.22392e-012 -9.54166e-015 4.99949e-011 -1.74883e-012 3.88028e-013 1.17947e-010 -1.13792e-012 8.07861e-013 2.03696e-010 -1.9624e-012 1.39149e-012 1.17943e-010 -1.13546e-012 8.23764e-013 -7.73091 5.47488 -0.417314 1.17947e-010 -1.13774e-012 8.015e-013 -2.90554 0.965183 -0.102902 1.17943e-010 -1.13774e-012 8.06271e-013 -10.2786 0.731801 -0.0259123 1.17955e-010 -1.13546e-012 7.98319e-013 -2.22167 -0.733487 0.20892 -2.03217e-016 0 -3.88251e-019 2.21578 -8.0297 -0.23138 0.00606981 8.97362 0.152054 -0.477999 -0.951428 0.0348972 2.03217e-016 0 3.88251e-019 1.35236 -1.92788 -0.00536287 0.00846441 -2.07867 0.0694409 0.423553 3.99898 -0.127244 
51.5348 84.9963 132.237 -1.21975 -0.524616 47.7289 3.02459 1.15852 1.89627 0.0165868 -2.28292 0.630069 2.15321 3.98609 4.69639 -2.99866 -7.03293 8.71143 -0 0 0 -0 0 0 1.74808e-014 -7.88887e-015 7.24931e-014 22.5677 12.4874 -3.7814 -5.05001 -2.4883 7.66598 0.0515606 5.05583 0.70071 1.06312e-010 -2.66662e-010 1.9474e-010 1.868e-010 -4.62401e-010 3.36318e-010 1.06316e-010 -2.66663e-010 1.9472e-010 7.73091 5.47488 0.417314 1.06312e-010 -2.66663e-010 1.94738e-010 2.90554 0.965183 0.102902 1.06315e-010 -2.66663e-010 1.94734e-010 10.2786 0.731801 0.0259123 1.06306e-010 -2.66661e-010 1.94746e-010 2.22167 -0.733487 -0.20892 1.73406e-014 -7.89091e-015 7.22039e-014 -22.1468 9.28916 2.38243 5.21331 -2.6072 -7.86718 -0.0233229 3.38868 -0.473244 8.61109e-011 2.35473e-011 4.18876e-011 1.49203e-010 4.1722e-011 7.21683e-011 8.61013e-011 2.35535e-011 4.19017e-011 -7.73091 5.47488 -0.417314 8.61076e-011 2.35458e-011 4.18791e-011 -2.90554 0.965183 -0.102902 8.61069e-011 2.35484e-011 4.1886e-011 -10.2786 0.731801 -0.0259123 8.61157e-011 2.35511e-011 4.18798e-011 -2.22167 -0.733487 0.20892 -2.03217e-016 0 -3.88251e-019 4.07091 -7.19423 2.94203 0.0381558 12.757 0.244786 -1.57381 -5.13662 -8.35807 2.03217e-016 0 3.88251e-019 0.0760295 -3.09907 -5.11994 -0.00632566 4.02266 -0.0897563 0.813871 -0.99678 3.62638 
51.5245 84.9921 132.241 -0.21214 0.229225 98.145 3.66376 2.39054 3.83481 -0.605149 -4.70154 1.18054 3.71334 8.10353 9.73699 -3.81197 -13.9139 18.3449 -0 0 0 -0 0 0 2.40727e-014 -1.64982e-014 1.54303e-013 48.3911 25.4969 -8.42149 -9.67307 -4.97166 15.8185 -0.0303817 10.352 1.45346 9.02934e-011 -5.54574e-010 4.02851e-010 1.62553e-010 -9.61773e-010 6.95822e-010 9.02969e-011 -5.54575e-010 4.02834e-010 7.73091 5.47488 0.417314 9.02938e-011 -5.54577e-010 4.02852e-010 2.90554 0.965183 0.102902 9.02968e-011 -5.54576e-010 4.02848e-010 10.2786 0.731801 0.0259123 9.02886e-011 -5.54573e-010 4.02858e-010 2.22167 -0.733487 -0.20892 2.38826e-014 -1.64995e-014 1.54021e-013 -46.4415 19.0501 5.11486 9.95265 -5.19873 -16.2342 0.013296 6.96916 -0.978914 5.16435e-011 4.90373e-011 8.35943e-011 9.02023e-011 8.68989e-011 1.44001e-010 5.16274e-011 4.90474e-011 8.36064e-011 -7.73091 5.47488 -0.417314 5.1637e-011 4.9034e-011 8.35832e-011 -2.90554 0.965183 -0.102902 5.16394e-011 4.90395e-011 8.35926e-011 -10.2786 0.731801 -0.0259123 5.16448e-011 4.90426e-011 8.35884e-011 -2.22167 -0.733487 0.20892 -2.03217e-016 0 -3.88251e-019 5.92881 -6.28723 6.2856 0.0581551 16.76 0.347176 -4.06193 -9.24091 -17.3932 2.03217e-016 0 3.88251e-019 -1.50345 -4.27992 -10.5385 0.0153667 10.4702 -0.261801 1.93905 -6.22307 7.63975 
51.5378 84.9913 132.237 -0.421104 1.88067 143.088 4.16906 3.46552 5.57041 -1.11845 -6.85818 1.67683 4.48662 11.6341 14.3561 -2.52236 -19.1042 27.5719 -0 0 0 -0 0 0 2.86909e-014 -2.34461e-014 2.17082e-013 73.6444 36.7256 -13.8674 -13.1999 -6.93154 23.1551 -0.227594 15.1583 2.16947 8.30414e-011 -7.97734e-010 5.8261e-010 1.53013e-010 -1.38331e-009 1.0062e-009 8.3045e-011 -7.97735e-010 5.82595e-010 7.73091 5.47488 0.417314 8.30419e-011 -7.97738e-010 5.82612e-010 2.90554 0.965183 0.102902 8.3045e-011 -7.97736e-010 5.82608e-010 10.2786 0.731801 0.0259123 8.30379e-011 -7.97733e-010 5.82616e-010 2.22167 -0.733487 -0.20892 2.84612e-014 -2.34468e-014 2.1681e-013 -69.0048 27.6619 7.96931 13.5452 -7.23301 -23.7777 0.100228 10.1633 -1.43985 2.24386e-011 7.29176e-011 1.24047e-010 4.02177e-011 1.29091e-010 2.13722e-010 2.24173e-011 7.29315e-011 1.24058e-010 -7.73091 5.47488 -0.417314 2.24296e-011 7.29128e-011 1.24034e-010 -2.90554 0.965183 -0.102902 2.24343e-011 7.29207e-011 1.24045e-010 -10.2786 0.731801 -0.0259123 2.2437e-011 7.29241e-011 1.24043e-010 -2.22167 -0.733487 0.20892 -2.03217e-016 0 -3.88251e-019 7.50193 -5.47949 9.25742 0.0630304 20.3234 0.443452 -7.38216 -12.3649 -25.6799 2.03217e-016 0 3.88251e-019 -3.09661 -5.2832 -15.3936 0.0687959 16.2249 -0.424295 3.57073 -10.785 11.3341 
51.5416 84.9862 132.247 -1.58689 2.81376 174.421 4.49934 4.1619 6.78974 -1.44905 -8.36216 2.02783 4.68428 14.0053 17.6687 -0.579179 -21.9746 34.4004 -0 0 0 -0 0 0 2.83747e-014 -2.62404e-014 2.3228e-013 93.0002 44.1835 -18.9863 -15.3449 -8.09248 28.3014 -0.451437 18.7479 2.73412 9.77066e-011 -9.29013e-010 6.91484e-010 1.80244e-010 -1.61026e-009 1.19378e-009 9.77102e-011 -9.29015e-010 6.91472e-010 7.73091 5.47488 0.417314 9.77071e-011 -9.29017e-010 6.91488e-010 2.90554 0.965183 0.102902 9.77101e-011 -9.29015e-010 6.91484e-010 10.2786 0.731801 0.0259123 9.77041e-011 -9.29012e-010 6.91491e-010 2.22167 -0.733487 -0.20892 2.81317e-014 -2.62407e-014 2.32031e-013 -85.3601 33.593 10.3589 15.7251 -8.43428 -29.0945 0.192188 12.394 -1.76984 6.38974e-012 9.27736e-011 1.61365e-010 1.27747e-011 1.63821e-010 2.78163e-010 6.36668e-012 9.27907e-011 1.61375e-010 -7.73091 5.47488 -0.417314 6.37985e-012 9.27679e-011 1.61353e-010 -2.90554 0.965183 -0.102902 6.38519e-012 9.27768e-011 1.61364e-010 -10.2786 0.731801 -0.0259123 6.38715e-012 9.27804e-011 1.61362e-010 -2.22167 -0.733487 0.20892 -2.03217e-016 0 -3.88251e-019 8.56333 -4.94288 11.3203 0.0586754 22.7875 0.51369 -10.2543 -14.1145 -31.5976 2.03217e-016 0 3.88251e-019 -4.29913 -5.97946 -18.804 0.126833 20.2478 -0.546223 5.07058 -13.8927 14.0066 
51.5366 84.971 132.279 -2.2456 2.90777 -173.349 4.66206 4.32148 7.28632 -1.56323 -8.95746 2.1699 4.69978 14.9835 18.9841 0.336074 -22.9624 37.1337 -0 0 0 -0 0 0 1.83628e-014 -2.16541e-014 1.67744e-013 101.06 46.9915 -21.4202 -16.1071 -8.48134 30.2943 -0.592818 20.7409 3.05881 1.71701e-010 -9.00664e-010 7.17261e-010 3.0876e-010 -1.5588e-009 1.23677e-009 1.71704e-010 -9.00666e-010 7.17251e-010 7.73091 5.47488 0.417314 1.71701e-010 -9.00667e-010 7.17264e-010 2.90554 0.965183 0.102902 1.71704e-010 -9.00666e-010 7.17261e-010 10.2786 0.731801 0.0259123 1.71699e-010 -9.00663e-010 7.17268e-010 2.22167 -0.733487 -0.20892 1.81518e-014 -2.16547e-014 1.67542e-013 -91.9656 35.9478 11.465 16.5202 -8.85443 -31.2081 0.235499 13.2699 -1.90165 2.26005e-011 1.19454e-010 2.1488e-010 4.09075e-011 2.09569e-010 3.7072e-010 2.25812e-011 1.19474e-010 2.1489e-010 -7.73091 5.47488 -0.417314 2.25921e-011 1.19448e-010 2.14871e-010 -2.90554 0.965183 -0.102902 2.25955e-011 1.19456e-010 2.14879e-010 -10.2786 0.731801 -0.0259123 2.25996e-011 1.19459e-010 2.14878e-010 -2.22167 -0.733487 0.20892 -2.03217e-016 0 -3.88251e-019 8.99872 -4.80291 12.116 0.0551168 23.7086 0.540843 -11.4657 -14.6637 -33.9372 2.03217e-016 0 3.88251e-019 -4.77123 -6.35009 -20.1756 0.154889 21.8514 -0.598361 5.75038 -15.1297 15.0753 
51.5446 84.9498 132.3 -2.21437 2.74896 -174.781 4.71972 4.10104 7.2649 -1.5323 -8.90399 2.16065 4.73282 15.031 18.8251 0.107481 -23.0009 36.7858 -0 0 0 -0 0 0 1.5582e-015 -1.18706e-014 4.6879e-014 100.059 46.7221 -21.1154 -15.9982 -8.41672 30.0163 -0.640125 21.5907 3.196 2.8671e-010 -7.58438e-010 6.82913e-010 5.07252e-010 -1.30877e-009 1.17518e-009 2.86712e-010 -7.58439e-010 6.82905e-010 7.73091 5.47488 0.417314 2.86709e-010 -7.5844e-010 6.82915e-010 2.90554 0.965183 0.102902 2.86711e-010 -7.58439e-010 6.82914e-010 10.2786 0.731801 0.0259123 2.86707e-010 -7.58437e-010 6.8292e-010 2.22167 -0.733487 -0.20892 1.41125e-015 -1.18716e-014 4.67424e-014 -91.2936 35.8014 11.4331 16.4518 -8.82615 -31.013 0.230721 13.179 -1.88788 6.11947e-011 1.50415e-010 2.78984e-010 1.07594e-010 2.62166e-010 4.8167e-010 6.11832e-011 1.5044e-010 2.78994e-010 -7.73091 5.47488 -0.417314 6.11896e-011 1.50411e-010 2.7898e-010 -2.90554 0.965183 -0.102902 6.11891e-011 1.50416e-010 2.78983e-010 -10.2786 0.731801 -0.0259123 6.11974e-011 1.50419e-010 2.78981e-010 -2.22167 -0.733487 0.20892 -2.03217e-016 0 -3.88251e-019 9.00541 -4.94544 12.0081 0.0554523 23.5276 0.535508 -11.2795 -14.5625 -33.6693 2.03217e-016 0 3.88251e-019 -4.67666 -6.51334 -20.0853 0.152153 21.7267 -0.596186 5.69034 -15.0783 14.9435 
51.5584 84.9388 132.297 -1.94367 2.50622 178.318 4.72214 3.75463 7.02694 -1.44407 -8.58552 2.08875 4.77353 14.6874 18.0758 -0.576081 -22.6508 35.2049 -0 0 0 -0 0 0 -1.35033e-014 -2.51287e-015 -7.55215e-014 95.4492 45.2513 -19.7171 -15.542 -8.17175 28.8369 -0.633923 21.8228 3.22897 3.72292e-010 -5.75452e-010 5.98693e-010 6.54041e-010 -9.8888e-010 1.02801e-009 3.72294e-010 -5.75453e-010 5.98688e-010 7.73091 5.47488 0.417314 3.7229e-010 -5.75453e-010 5.98694e-010 2.90554 0.965183 0.102902 3.72291e-010 -5.75453e-010 5.98694e-010 10.2786 0.731801 0.0259123 3.72288e-010 -5.75451e-010 5.98701e-010 2.22167 -0.733487 -0.20892 -1.35875e-014 -2.5146e-015 -7.55999e-014 -87.689 34.627 10.9231 16.0349 -8.61547 -29.8851 0.207122 12.7143 -1.81782 8.65968e-011 1.63156e-010 3.14387e-010 1.51273e-010 2.83157e-010 5.43163e-010 8.65932e-011 1.63183e-010 3.14398e-010 -7.73091 5.47488 -0.417314 8.65951e-011 1.63153e-010 3.14389e-010 -2.90554 0.965183 -0.102902 8.65905e-011 1.63154e-010 3.14386e-010 -10.2786 0.731801 -0.0259123 8.66034e-011 1.63157e-010 3.14384e-010 -2.22167 -0.733487 0.20892 -2.03217e-016 0 -3.88251e-019 8.83428 -5.17872 11.5409 0.0572747 22.913 0.51764 -10.5517 -14.2117 -32.3728 2.03217e-016 0 3.88251e-019 -4.35252 -6.56826 -19.4045 0.136913 20.903 -0.571039 5.32629 -14.5003 14.3203 
51.5567 84.9402 132.274 -1.81387 2.33725 174.14 4.72186 3.53654 6.87327 -1.38566 -8.38578 2.04298 4.79678 14.4867 17.6266 -0.993489 -22.4501 34.2558 -0 0 0 -0 0 0 -1.82855e-014 7.95915e-016 -1.44666e-013 92.7331 44.4445 -18.9118 -15.2604 -8.01776 28.1262 -0.630524 21.9613 3.24879 3.58006e-010 -4.24823e-010 4.74854e-010 6.27448e-010 -7.27838e-010 8.14253e-010 3.58008e-010 -4.24825e-010 4.7485e-010 7.73091 5.47488 0.417314 3.58004e-010 -4.24824e-010 4.74854e-010 2.90554 0.965183 0.102902 3.58006e-010 -4.24824e-010 4.74855e-010 10.2786 0.731801 0.0259123 3.58003e-010 -4.24822e-010 4.74863e-010 2.22167 -0.733487 -0.20892 -1.83417e-014 7.93586e-016 -1.44715e-013 -85.5297 33.8913 10.6188 15.7764 -8.48111 -29.2019 0.194569 12.4691 -1.7809 6.3231e-011 1.35174e-010 2.818e-010 1.10384e-010 2.34089e-010 4.87348e-010 6.32318e-011 1.352e-010 2.81813e-010 -7.73091 5.47488 -0.417314 6.32316e-011 1.35171e-010 2.81807e-010 -2.90554 0.965183 -0.102902 6.32244e-011 1.35171e-010 2.818e-010 -10.2786 0.731801 -0.0259123 6.32402e-011 1.35174e-010 2.81797e-010 -2.22167 -0.733487 0.20892 -2.03217e-016 0 -3.88251e-019 8.74023 -5.31006 11.2593 0.0582426 22.5332 0.507155 -10.1421 -14.0057 -31.6266 2.03217e-016 0 3.88251e-019 -4.15006 -6.60803 -19.0064 0.128303 20.4096 -0.554662 5.10477 -14.1546 13.9197 
